<svg fill="#000000" width="48px" height="48px" viewBox="0 0 64 64" version="1.1" xmlns="http://www.w3.org/2000/svg" xmlns:xlink="http://www.w3.org/1999/xlink" xml:space="preserve" xmlns:serif="http://www.serif.com/" style="fill-rule:evenodd;clip-rule:evenodd;stroke-linejoin:round;stroke-miterlimit:2;"><g id="SVGRepo_bgCarrier" stroke-width="0"></g><g id="SVGRepo_tracerCarrier" stroke-linecap="round" stroke-linejoin="round"></g><g id="SVGRepo_iconCarrier"> <rect id="Icons" x="-192" y="0" width="1280" height="800" style="fill:none;"></rect> <g id="Icons1" serif:id="Icons"> <g id="Strike"> <rect id="Strike-line" serif:id="Strike line" x="10.01" y="30.17" width="44.15" height="2.988"></rect> <rect x="10.01" y="30.17" width="44.15" height="2.988"></rect> <path id="Strike1" serif:id="Strike" d="M46.396,35.711c0.414,0.482 0.779,0.983 1.093,1.504c1.06,1.756 1.59,3.823 1.59,6.2c0,3.791 -1.478,6.827 -4.433,9.107c-2.955,2.281 -6.907,3.422 -11.854,3.422c-3.212,0 -6.21,-0.616 -8.994,-1.848c-2.785,-1.231 -4.931,-2.917 -6.441,-5.059c-1.51,-2.142 -2.265,-4.572 -2.265,-7.292l6.2,0c0,2.827 1.044,5.059 3.132,6.698c2.088,1.638 4.877,2.457 8.368,2.457c3.256,0 5.75,-0.664 7.485,-1.992c1.735,-1.327 2.602,-3.137 2.602,-5.429c0,-2.291 -0.803,-4.063 -2.409,-5.316c-1.057,-0.824 -2.68,-1.642 -4.868,-2.452l10.794,0Zm-27.382,-8.094c-1.629,-1.974 -2.444,-4.3 -2.444,-6.978c0,-3.683 1.472,-6.73 4.417,-9.139c2.944,-2.409 6.773,-3.614 11.484,-3.614c3.212,0 6.077,0.621 8.593,1.863c2.517,1.242 4.465,2.956 5.847,5.14c1.381,2.185 2.072,4.572 2.072,7.164l-6.2,0c0,-2.827 -0.9,-5.049 -2.699,-6.666c-1.799,-1.617 -4.336,-2.425 -7.613,-2.425c-3.041,0 -5.413,0.669 -7.115,2.007c-1.703,1.339 -2.554,3.197 -2.554,5.574c0,1.906 0.808,3.518 2.425,4.835c0.966,0.786 2.337,1.533 4.112,2.239l-10.325,0Z" style="fill-rule:nonzero;"></path> </g> <g id="H1"> </g> <g id="H2"> </g> <g id="H3"> </g> <g id="list-ul"> </g> <g id="hamburger-1"> </g> <g id="hamburger-2"> </g> <g id="list-ol"> </g> <g id="list-task"> </g> <g id="trash"> </g> <g id="vertical-menu"> </g> <g id="horizontal-menu"> </g> <g id="sidebar-2"> </g> <g id="Pen"> </g> <g id="Pen1" serif:id="Pen"> </g> <g id="clock"> </g> <g id="external-link"> </g> <g id="hr"> </g> <g id="info"> </g> <g id="warning"> </g> <g id="plus-circle"> </g> <g id="minus-circle"> </g> <g id="vue"> </g> <g id="cog"> </g> <g id="logo"> </g> <g id="radio-check"> </g> <g id="eye-slash"> </g> <g id="eye"> </g> <g id="toggle-off"> </g> <g id="shredder"> </g> <g id="spinner--loading--dots-" serif:id="spinner [loading, dots]"> </g> <g id="react"> </g> <g id="check-selected"> </g> <g id="turn-off"> </g> <g id="code-block"> </g> <g id="user"> </g> <g id="coffee-bean"> </g> <g id="coffee-beans"> <g id="coffee-bean1" serif:id="coffee-bean"> </g> </g> <g id="coffee-bean-filled"> </g> <g id="coffee-beans-filled"> <g id="coffee-bean2" serif:id="coffee-bean"> </g> </g> <g id="clipboard"> </g> <g id="clipboard-paste"> </g> <g id="clipboard-copy"> </g> <g id="Layer1"> </g> </g> </g></svg>